<?xml version="1.0" standalone="no"?>
<svg xmlns="http://www.w3.org/2000/svg" viewBox="0 0 258.616 52" width="258.616" height="52"><rect fill="none" stroke="#6183ff" stroke-width="3" width="255.61599999999999" height="49" x="1.5" y="1.5"></rect><g fill="#6183ff" color="#6183ff" transform="translate(12.000000000000014, 11.999999999999998) scale(0.2800001)"><svg width="100.0" height="100.0" x="0.0" y="0.0" viewBox="0 0 100 100"><path d="M51.768,8.977c0,0.191-0.205,0.343-0.458,0.343h-0.286v14.157H48.97V9.321h-0.286c-0.248,0-0.453-0.153-0.453-0.343  c0-0.186,0.205-0.343,0.453-0.343h2.626C51.563,8.634,51.768,8.791,51.768,8.977z"></path><path d="M52.474,25.379v0.153c0,0.248-0.205,0.453-0.458,0.453h-0.038v12.488h-3.956V25.984h-0.038  c-0.253,0-0.458-0.205-0.458-0.453v-0.153c0-0.253,0.205-0.458,0.458-0.458h4.033C52.269,24.922,52.474,25.127,52.474,25.379z"></path><path d="M53.804,40.294v0.153c0,0.253-0.205,0.458-0.458,0.458h-0.305v8.342h-6.087v-8.342h-0.305c-0.248,0-0.453-0.205-0.453-0.458  v-0.153c0-0.253,0.205-0.458,0.453-0.458h6.697C53.599,39.836,53.804,40.041,53.804,40.294z"></path><path d="M56.163,51.061v0.381c0,0.253-0.205,0.458-0.458,0.458h-0.257v5.892H44.552V51.9H44.29c-0.248,0-0.453-0.205-0.453-0.458  v-0.381c0-0.253,0.205-0.458,0.453-0.458h11.416C55.958,50.604,56.163,50.809,56.163,51.061z"></path><circle cx="49.999" cy="7.528" r="0.685"></circle><path d="M52.069,1.084l-0.696,0.372v0.791c0,0.014,0,0.029-0.005,0.043c-0.005,0.081-0.052,0.157-0.129,0.205l-0.61,0.391v3.337  c0,0.124-0.105,0.229-0.229,0.229h-0.858c-0.124,0-0.229-0.105-0.229-0.229V4.187l-0.1,0.319c-0.033,0.1-0.119,0.162-0.219,0.162  c-0.024,0-0.043-0.005-0.067-0.014c-0.119-0.038-0.186-0.162-0.148-0.286l0.51-1.635c0.019-0.062,0.067-0.11,0.124-0.133  c0.014-0.005,0.024-0.014,0.038-0.014c0,0,0-0.005,0.005-0.005c0.024-0.014,0.052-0.019,0.086-0.019h0.186  c-0.157-0.071-0.262-0.229-0.262-0.41c0-0.253,0.205-0.458,0.458-0.458c0.253,0,0.458,0.205,0.458,0.458  c0,0.095-0.029,0.181-0.076,0.257l0.61-0.381V1.699l-0.291,0.157c-0.11,0.062-0.124,0.043-0.029-0.043l0.319-0.286V1.389  c0-0.129,0.1-0.229,0.229-0.229c0.048,0,0.095,0.014,0.133,0.043l0.539-0.481c0.091-0.081,0.229-0.067,0.3,0.038l0.024,0.033  C52.212,0.893,52.178,1.027,52.069,1.084z"></path><rect x="11.191" y="85.394" width="77.854" height="2.016"></rect><path d="M91.968,83.215c0,0.449-0.368,0.817-0.817,0.817h-2.86c-0.449,0-0.817-0.368-0.817-0.817V59.972  c0-0.449,0.368-0.817,0.817-0.817h2.86c0.449,0,0.817,0.368,0.817,0.817V83.215z"></path><path d="M86.112,83.215c0,0.449-0.368,0.817-0.817,0.817h-4.358c-0.449,0-0.817-0.368-0.817-0.817V59.972  c0-0.449,0.368-0.817,0.817-0.817h4.358c0.449,0,0.817,0.368,0.817,0.817V83.215z"></path><path d="M78.757,83.215c0,0.449-0.368,0.817-0.817,0.817h-4.358c-0.449,0-0.817-0.368-0.817-0.817V59.972  c0-0.449,0.368-0.817,0.817-0.817h4.358c0.449,0,0.817,0.368,0.817,0.817V83.215z"></path><path d="M71.403,83.215c0,0.449-0.368,0.817-0.817,0.817h-4.358c-0.449,0-0.817-0.368-0.817-0.817V59.972  c0-0.449,0.368-0.817,0.817-0.817h4.358c0.449,0,0.817,0.368,0.817,0.817V83.215z"></path><path d="M64.049,83.215c0,0.449-0.368,0.817-0.817,0.817h-4.358c-0.449,0-0.817-0.368-0.817-0.817V59.972  c0-0.449,0.368-0.817,0.817-0.817h4.358c0.449,0,0.817,0.368,0.817,0.817V83.215z"></path><path d="M56.695,83.215c0,0.449-0.368,0.817-0.817,0.817H51.52c-0.449,0-0.817-0.368-0.817-0.817V59.972  c0-0.449,0.368-0.817,0.817-0.817h4.358c0.449,0,0.817,0.368,0.817,0.817V83.215z"></path><path d="M8.076,59.972c0-0.449,0.368-0.817,0.817-0.817h2.86c0.449,0,0.817,0.368,0.817,0.817v23.243  c0,0.449-0.368,0.817-0.817,0.817h-2.86c-0.449,0-0.817-0.368-0.817-0.817V59.972z"></path><path d="M13.932,59.972c0-0.449,0.368-0.817,0.817-0.817h4.358c0.449,0,0.817,0.368,0.817,0.817v23.243  c0,0.449-0.368,0.817-0.817,0.817h-4.358c-0.449,0-0.817-0.368-0.817-0.817V59.972z"></path><path d="M21.286,59.972c0-0.449,0.368-0.817,0.817-0.817h4.358c0.449,0,0.817,0.368,0.817,0.817v23.243  c0,0.449-0.368,0.817-0.817,0.817h-4.358c-0.449,0-0.817-0.368-0.817-0.817V59.972z"></path><path d="M28.64,59.972c0-0.449,0.368-0.817,0.817-0.817h4.358c0.449,0,0.817,0.368,0.817,0.817v23.243  c0,0.449-0.368,0.817-0.817,0.817h-4.358c-0.449,0-0.817-0.368-0.817-0.817V59.972z"></path><path d="M35.994,59.972c0-0.449,0.368-0.817,0.817-0.817h4.358c0.449,0,0.817,0.368,0.817,0.817v23.243  c0,0.449-0.368,0.817-0.817,0.817h-4.358c-0.449,0-0.817-0.368-0.817-0.817V59.972z"></path><path d="M43.349,59.972c0-0.449,0.368-0.817,0.817-0.817h4.358c0.449,0,0.817,0.368,0.817,0.817v23.243  c0,0.449-0.368,0.817-0.817,0.817h-4.358c-0.449,0-0.817-0.368-0.817-0.817V59.972z"></path><g><path d="M100,89.257c0,0.295-0.31,0.54-0.691,0.54h-0.52v9.533H1.206v-9.533H0.691C0.31,89.797,0,89.552,0,89.257   c0-0.3,0.31-0.544,0.691-0.544h98.618C99.69,88.713,100,88.957,100,89.257z"></path></g></svg></g><path fill="#6183ff" fill-rule="nonzero" d="M0 0.36L7.92 0.36L7.92 1.80L4.80 1.80L4.80 15.96L3.12 15.96L3.12 1.80L0 1.80L0 0.36ZM16.92 12.96L16.92 12.96L16.92 11.64L18.60 11.64L18.60 12.96Q18.60 14.57 17.62 15.44Q16.63 16.32 14.66 16.32Q12.70 16.32 11.69 15.44Q10.68 14.57 10.68 12.96L10.68 12.96L10.68 3.36Q10.68 1.75 11.66 0.88Q12.65 0 14.62 0Q16.58 0 17.59 0.88Q18.60 1.75 18.60 3.36L18.60 3.36L18.60 8.64L12.36 8.64L12.36 12.96Q12.36 14.88 14.64 14.88Q16.92 14.88 16.92 12.96ZM12.36 3.36L12.36 3.36L12.36 7.20L16.92 7.20L16.92 3.36Q16.92 1.44 14.64 1.44Q12.36 1.44 12.36 3.36ZM24.72 3.77L24.72 15.96L23.04 15.96L23.04 0.36L23.76 0.36L24.36 1.90Q24.86 1.03 25.68 0.52Q26.50 0 27.46 0L27.46 0Q29.88 0 30.55 1.75L30.55 1.75Q31.70 0 33.58 0L33.58 0Q36.96 0 36.96 3.36L36.96 3.36L36.96 15.96L35.28 15.96L35.28 3.36Q35.28 1.44 33.55 1.44L33.55 1.44Q32.54 1.44 31.69 2.26Q30.84 3.07 30.84 3.84L30.84 3.84L30.84 15.96L29.16 15.96L29.16 3.36Q29.16 1.44 27.43 1.44L27.43 1.44Q26.42 1.44 25.57 2.22Q24.72 3 24.72 3.77L24.72 3.77ZM42.96 11.16L42.96 15.96L41.28 15.96L41.28 0.36L44.90 0.36Q46.78 0.36 47.75 1.25Q48.72 2.14 48.72 3.72L48.72 3.72L48.72 7.80Q48.72 9.41 47.76 10.28Q46.80 11.16 44.90 11.16L44.90 11.16L42.96 11.16ZM47.04 7.80L47.04 7.80L47.04 3.72Q47.04 2.81 46.49 2.30Q45.94 1.80 44.90 1.80L44.90 1.80L42.96 1.80L42.96 9.72L44.90 9.72Q47.04 9.72 47.04 7.80ZM58.63 15.96L52.56 15.96L52.56 0.36L54.24 0.36L54.24 14.52L58.63 14.52L58.63 15.96ZM67.39 12.96L67.39 12.96L67.39 11.64L69.07 11.64L69.07 12.96Q69.07 14.57 68.09 15.44Q67.10 16.32 65.14 16.32Q63.17 16.32 62.16 15.44Q61.15 14.57 61.15 12.96L61.15 12.96L61.15 3.36Q61.15 1.75 62.14 0.88Q63.12 0 65.09 0Q67.06 0 68.06 0.88Q69.07 1.75 69.07 3.36L69.07 3.36L69.07 8.64L62.83 8.64L62.83 12.96Q62.83 14.88 65.11 14.88Q67.39 14.88 67.39 12.96ZM62.83 3.36L62.83 3.36L62.83 7.20L67.39 7.20L67.39 3.36Q67.39 1.44 65.11 1.44Q62.83 1.44 62.83 3.36ZM81.19 14.52L82.39 14.52L82.39 15.96L78.31 15.96L78.31 14.52L79.51 14.52L79.51 1.80L78.31 1.80L78.31 0.36L82.39 0.36L82.39 1.80L81.19 1.80L81.19 14.52ZM88.15 3.84L88.15 15.96L86.47 15.96L86.47 0.36L87.19 0.36L87.79 1.92Q88.94 0 90.98 0L90.98 0Q94.51 0 94.51 3.36L94.51 3.36L94.51 15.96L92.83 15.96L92.83 3.36Q92.83 2.45 92.44 1.94Q92.04 1.44 90.98 1.44Q89.93 1.44 89.04 2.26Q88.15 3.07 88.15 3.84L88.15 3.84ZM100.75 3.84L100.75 15.96L99.07 15.96L99.07 0.36L99.79 0.36L100.39 1.92Q101.54 0 103.58 0L103.58 0Q107.11 0 107.11 3.36L107.11 3.36L107.11 15.96L105.43 15.96L105.43 3.36Q105.43 2.45 105.04 1.94Q104.64 1.44 103.58 1.44Q102.53 1.44 101.64 2.26Q100.75 3.07 100.75 3.84L100.75 3.84ZM116.47 12.96L116.47 12.96L116.47 10.80Q116.47 8.23 118.20 7.58L118.20 7.58Q116.95 5.64 116.95 4.56L116.95 4.56L116.95 3.36Q116.95 1.75 117.95 0.88Q118.94 0 120.96 0L120.96 0Q124.82 0 124.82 3.36L124.82 3.36L124.82 5.40L123.14 5.40L123.14 3.26Q123.14 2.40 122.58 1.92Q122.02 1.44 120.89 1.44Q119.76 1.44 119.20 1.92Q118.63 2.40 118.63 3.26L118.63 3.26L118.63 4.56Q118.63 5.42 119.95 7.32L119.95 7.32L126.53 7.32L126.53 8.76L124.58 8.76L124.58 12.96Q124.58 16.32 120.53 16.32Q116.47 16.32 116.47 12.96ZM122.90 13.06L122.90 13.06L122.90 8.76L119.81 8.76Q118.15 8.76 118.15 10.80L118.15 10.80L118.15 13.06Q118.15 13.92 118.75 14.40Q119.35 14.88 120.53 14.88Q121.70 14.88 122.30 14.40Q122.90 13.92 122.90 13.06ZM142.58 12.96L142.58 12.96Q142.58 16.32 138.53 16.32Q134.47 16.32 134.47 12.96L134.47 12.96L134.47 10.92L136.15 10.92L136.15 13.06Q136.15 13.92 136.75 14.40Q137.35 14.88 138.53 14.88Q139.70 14.88 140.30 14.40Q140.90 13.92 140.90 13.09Q140.90 12.26 140.72 11.77Q140.54 11.28 139.99 10.73L139.99 10.73L135.77 6.60Q135.02 5.86 134.75 5.15Q134.47 4.44 134.47 3.36L134.47 3.36Q134.47 1.75 135.47 0.88Q136.46 0 138.48 0L138.48 0Q142.34 0 142.34 3.36L142.34 3.36L142.34 5.40L140.66 5.40L140.66 3.26Q140.66 2.40 140.10 1.92Q139.54 1.44 138.41 1.44Q137.28 1.44 136.72 1.92Q136.15 2.40 136.15 3.24Q136.15 4.08 136.32 4.56Q136.49 5.04 137.06 5.57L137.06 5.57L141.36 9.70Q142.06 10.46 142.32 11.17Q142.58 11.88 142.58 12.96ZM146.66 12.96L146.66 12.96L146.66 0.36L148.34 0.36L148.34 12.96Q148.34 13.87 148.74 14.38Q149.14 14.88 150.19 14.88Q151.25 14.88 152.14 14.06Q153.02 13.25 153.02 12.48L153.02 12.48L153.02 0.36L154.70 0.36L154.70 15.96L153.98 15.96L153.36 14.42Q152.83 15.29 152.00 15.80Q151.18 16.32 150.19 16.32L150.19 16.32Q146.66 16.32 146.66 12.96ZM161.18 0.36L161.18 15.96L159.50 15.96L159.50 0.36L161.18 0.36ZM165.62 13.20L165.62 0.36L170.90 0.36L170.90 1.80L167.30 1.80L167.30 13.30Q167.30 13.97 167.65 14.42Q168.00 14.88 168.64 14.88Q169.27 14.88 169.61 14.44Q169.94 13.99 169.94 13.30L169.94 13.30L169.94 10.44L171.62 10.44L171.62 13.20Q171.62 14.71 170.82 15.52Q170.02 16.32 168.65 16.32Q167.28 16.32 166.45 15.52Q165.62 14.71 165.62 13.20L165.62 13.20ZM180.86 12.96L180.86 12.96L180.86 11.64L182.54 11.64L182.54 12.96Q182.54 14.57 181.56 15.44Q180.58 16.32 178.61 16.32Q176.64 16.32 175.63 15.44Q174.62 14.57 174.62 12.96L174.62 12.96L174.62 3.36Q174.62 1.75 175.61 0.88Q176.59 0 178.56 0Q180.53 0 181.54 0.88Q182.54 1.75 182.54 3.36L182.54 3.36L182.54 8.64L176.30 8.64L176.30 12.96Q176.30 14.88 178.58 14.88Q180.86 14.88 180.86 12.96ZM176.30 3.36L176.30 3.36L176.30 7.20L180.86 7.20L180.86 3.36Q180.86 1.44 178.58 1.44Q176.30 1.44 176.30 3.36ZM194.62 12.96L194.62 12.96Q194.62 16.32 190.56 16.32Q186.50 16.32 186.50 12.96L186.50 12.96L186.50 10.92L188.18 10.92L188.18 13.06Q188.18 13.92 188.78 14.40Q189.38 14.88 190.56 14.88Q191.74 14.88 192.34 14.40Q192.94 13.92 192.94 13.09Q192.94 12.26 192.76 11.77Q192.58 11.28 192.02 10.73L192.02 10.73L187.80 6.60Q187.06 5.86 186.78 5.15Q186.50 4.44 186.50 3.36L186.50 3.36Q186.50 1.75 187.50 0.88Q188.50 0 190.51 0L190.51 0Q194.38 0 194.38 3.36L194.38 3.36L194.38 5.40L192.70 5.40L192.70 3.26Q192.70 2.40 192.13 1.92Q191.57 1.44 190.44 1.44Q189.31 1.44 188.75 1.92Q188.18 2.40 188.18 3.24Q188.18 4.08 188.35 4.56Q188.52 5.04 189.10 5.57L189.10 5.57L193.39 9.70Q194.09 10.46 194.35 11.17Q194.62 11.88 194.62 12.96Z" transform="translate(52.000000000000014 18.02)"></path></svg>